<svg viewBox="0 0 43 40" xmlns="http://www.w3.org/2000/svg"><path d="M27.68 0c.76 0 1.347.21 1.765.63.418.418.683.837.797 1.256l12.7 36.457c.04.114.058.247.058.4 0 .343-.123.638-.37.886-.247.246-.54.37-.883.37H31.21c-.76 0-1.29-.162-1.594-.486-.304-.324-.513-.638-.627-.943l-1.367-3.77H15.377l-1.366 3.77c-.113.306-.322.62-.626.944-.304.324-.835.486-1.595.486H1.252c-.342 0-.636-.124-.883-.37-.247-.25-.37-.544-.37-.887 0-.153.02-.286.057-.4l12.7-36.457c.115-.42.38-.838.798-1.257C13.973.21 14.56 0 15.32 0h12.36zm-2.962 23.657L21.472 13.03l-3.19 10.627h6.436z" fill="#08D49A" fill-rule="evenodd"/></svg>
