<svg viewBox="0 0 38 40" xmlns="http://www.w3.org/2000/svg"><path d="M36.45 0c.42 0 .785.152 1.09.457.307.305.46.667.46 1.086v36.914c0 .42-.153.78-.46 1.086-.305.305-.67.457-1.09.457H25.2c-.422 0-.785-.152-1.09-.457-.307-.305-.46-.667-.46-1.086V26.114h-9.3v12.343c0 .42-.153.78-.46 1.086-.305.305-.668.457-1.09.457H1.55c-.42 0-.785-.143-1.09-.43-.307-.284-.46-.656-.46-1.113V1.543c0-.42.153-.78.46-1.086C.764.152 1.13 0 1.55 0H12.8c.422 0 .785.152 1.09.457.307.305.46.667.46 1.086v12h9.3v-12c0-.42.153-.78.46-1.086C24.414.152 24.777 0 25.2 0h11.25z" fill="#08D49A" fill-rule="evenodd"/></svg>
