<svg viewBox="0 0 349 51" xmlns="http://www.w3.org/2000/svg">
  <title>
    HAHAHAHA
  </title>
  <g fill="#08D49A" fill-rule="evenodd">
    <path d="M330.556 9.073c.76-.054 1.364.114 1.81.503.45.39.744.788.887 1.198l15.26 35.48c.045.11.074.242.084.394.024.343-.08.646-.308.91-.23.264-.517.408-.86.432l-10.55.738c-.76.053-1.302-.07-1.63-.373-.326-.302-.557-.6-.692-.897l-1.632-3.666-12.26.857-1.105 3.857c-.092.312-.28.64-.56.984-.282.346-.803.544-1.563.598l-10.55.737c-.34.024-.645-.08-.91-.308-.263-.23-.408-.516-.432-.858-.01-.153 0-.287.03-.404l10.172-37.258c.085-.426.322-.862.71-1.31.39-.447.965-.697 1.725-.75l12.374-.865zm-2.18 22.558l-3.99-10.374-2.453 10.826 6.444-.45z"/>
    <path d="M303.37 5.052c.414.058.752.26 1.01.604.26.344.36.723.303 1.138l-5.138 36.555c-.058.414-.26.75-.603 1.01-.345.26-.725.36-1.14.302l-11.094-1.56c-.415-.057-.753-.258-1.012-.603-.26-.345-.36-.725-.302-1.14l1.718-12.222-9.17-1.29-1.718 12.224c-.058.415-.26.752-.604 1.01-.344.26-.724.36-1.14.303l-11.094-1.56c-.415-.058-.753-.25-1.016-.575-.262-.325-.36-.714-.297-1.167l5.137-36.555c.058-.415.26-.752.604-1.012s.724-.36 1.14-.3l11.094 1.558c.415.058.752.26 1.012.604s.36.724.3 1.14L279.69 15.4l9.17 1.29 1.672-11.885c.058-.415.26-.752.604-1.01.344-.26.724-.36 1.14-.303l11.093 1.56z"/>
    <path d="M243.32 8.537c.762-.027 1.36.162 1.793.566.434.404.715.814.844 1.228l14.012 35.99c.04.114.065.247.07.4.012.342-.102.64-.34.897-.24.257-.53.39-.873.403l-10.57.37c-.76.025-1.3-.118-1.615-.43-.316-.314-.536-.62-.66-.92l-1.504-3.723-12.282.43-1.24 3.816c-.103.31-.302.63-.595.965-.293.334-.82.514-1.582.54l-10.568.37c-.343.012-.643-.102-.9-.34-.255-.24-.39-.53-.4-.873-.006-.152.008-.286.042-.4l11.467-36.88c.1-.424.35-.852.755-1.285.404-.434.987-.664 1.75-.69l12.396-.433zm-2.588 23.114l-3.627-10.508-2.828 10.734 6.455-.225z"/>
    <path d="M212.913 1.9c.42.022.773.193 1.06.513.29.32.423.69.4 1.108l-1.93 36.865c-.023.418-.194.772-.515 1.06-.32.29-.69.422-1.108.4l-11.188-.587c-.42-.02-.773-.193-1.06-.513-.29-.32-.423-.69-.4-1.108l.645-12.326-9.247-.484-.646 12.326c-.022.42-.194.772-.514 1.06-.32.29-.69.422-1.108.4l-11.19-.586c-.417-.022-.77-.184-1.06-.485-.29-.3-.423-.68-.4-1.136l1.933-36.863c.022-.418.193-.77.513-1.06.32-.288.69-.42 1.11-.4l11.187.587c.42.022.772.193 1.06.513.29.32.422.69.4 1.11l-.628 11.982 9.248.485.628-11.984c.022-.418.193-.772.513-1.06.32-.288.69-.422 1.11-.4l11.187.587z"/>
    <path d="M157.43 8.97c.762.026 1.345.256 1.75.69.404.433.656.86.756 1.284l11.466 36.88c.035.115.05.25.044.4-.012.344-.146.635-.403.874-.256.238-.555.352-.898.34l-10.57-.37c-.76-.026-1.288-.206-1.58-.54-.294-.335-.493-.656-.597-.965l-1.24-3.817-12.28-.43-1.504 3.723c-.125.3-.345.606-.66.92-.317.312-.856.455-1.618.43l-10.568-.37c-.343-.012-.634-.146-.873-.403-.24-.256-.352-.555-.34-.898.005-.153.03-.286.07-.4L142.4 10.33c.128-.413.41-.823.843-1.227.435-.404 1.032-.593 1.794-.566l12.397.433zm-4.355 22.906L150.19 21.14l-3.57 10.51 6.455.226z"/>
    <path d="M123.495.108c.418-.03.79.097 1.116.38.326.283.503.633.532 1.05l2.576 36.825c.03.418-.098.79-.38 1.115-.284.326-.634.503-1.052.532l-11.177.782c-.42.03-.79-.098-1.116-.38-.326-.283-.503-.634-.532-1.052l-.86-12.312-9.24.645.862 12.313c.03.418-.097.79-.38 1.115-.283.327-.634.504-1.052.533l-11.176.782c-.418.03-.79-.088-1.113-.352-.325-.264-.503-.624-.534-1.08L87.393 4.18c-.03-.42.097-.79.38-1.116.283-.325.633-.503 1.052-.532l11.176-.782c.418-.03.79.098 1.115.38.326.283.503.634.532 1.052l.836 11.97 9.238-.645-.837-11.97c-.03-.42.097-.79.38-1.116.283-.324.634-.502 1.052-.53l11.175-.782z"/>
    <path d="M71.488 9.938c.76.053 1.335.303 1.724.75.39.448.626.884.71 1.31l10.174 37.258c.03.117.04.25.03.403-.025.34-.17.627-.434.857-.264.23-.567.332-.91.308l-10.55-.737c-.76-.054-1.28-.252-1.56-.597-.283-.343-.47-.67-.563-.983l-1.106-3.858-12.26-.858-1.632 3.666c-.135.296-.366.595-.693.897-.328.302-.87.426-1.63.373l-10.55-.738c-.343-.024-.63-.168-.858-.432-.23-.264-.333-.567-.31-.91.01-.152.04-.283.086-.395l15.26-35.48c.142-.41.437-.808.885-1.197.447-.39 1.05-.557 1.81-.503l12.375.865zm-5.71 22.144l-2.51-10.83-3.934 10.38 6.443.45z"/>
    <path d="M35.944.215c.416-.06.795.042 1.14.3.344.26.545.598.604 1.013l5.137 36.555c.058.415-.042.794-.302 1.14-.26.343-.597.544-1.012.603l-11.093 1.56c-.415.057-.795-.043-1.14-.303-.344-.26-.545-.596-.603-1.01l-1.718-12.224-9.17 1.288 1.718 12.222c.058.415-.043.795-.302 1.14-.26.344-.597.545-1.012.603l-11.095 1.56c-.415.058-.793-.033-1.135-.274-.342-.24-.544-.588-.608-1.04L.215 6.793c-.06-.415.042-.794.3-1.138.26-.345.598-.546 1.013-.604l11.095-1.56c.415-.058.795.043 1.14.302.343.26.545.596.603 1.01l1.67 11.885 9.17-1.29-1.67-11.883c-.058-.415.042-.795.302-1.14.26-.343.597-.545 1.012-.603L35.944.214z"/>
  </g>
</svg>
