<svg viewBox="0 0 77 40" xmlns="http://www.w3.org/2000/svg">
  <title>
    NO
  </title>
  <g fill="#FF4A33" fill-rule="evenodd">
    <path d="M76.89 15.222c.073 1.593.11 3.24.11 4.945 0 1.703-.037 3.314-.11 4.833-.11 2.48-.628 4.657-1.55 6.528-.92 1.87-2.184 3.435-3.79 4.694-1.603 1.26-3.52 2.204-5.752 2.834-2.23.63-4.692.944-7.384.944-2.73 0-5.2-.315-7.413-.944-2.21-.63-4.12-1.575-5.724-2.834-1.604-1.26-2.867-2.824-3.79-4.694-.92-1.87-1.437-4.047-1.548-6.528-.074-1.52-.11-3.13-.11-4.833 0-1.704.036-3.352.11-4.945.11-2.444.627-4.61 1.55-6.5.92-1.89 2.184-3.48 3.788-4.778C46.88 2.648 48.79 1.667 51 1c2.214-.667 4.685-1 7.414-1 2.692 0 5.153.333 7.384 1 2.232.667 4.15 1.648 5.753 2.944 1.606 1.297 2.87 2.89 3.79 4.778.922 1.89 1.44 4.056 1.55 6.5zm-22.57 9.445c.074 1.555.47 2.694 1.19 3.416.72.723 1.687 1.084 2.904 1.084 1.217 0 2.185-.36 2.904-1.084.72-.722 1.115-1.86 1.19-3.416.11-3.148.11-6.26 0-9.334-.075-1.555-.48-2.694-1.218-3.416-.737-.723-1.696-1.084-2.876-1.084s-2.14.36-2.877 1.084c-.737.722-1.143 1.86-1.217 3.416-.11 3.074-.11 6.186 0 9.334z"/>
    <path d="M33.356.556c.405 0 .756.148 1.05.444.296.296.443.648.443 1.056v35.888c0 .408-.148.76-.443 1.056-.295.296-.646.444-1.05.444h-8.74c-.74 0-1.274-.166-1.606-.5-.33-.333-.552-.592-.662-.777L12.998 24v13.944c0 .408-.146.76-.44 1.056-.296.296-.647.444-1.052.444H1.494c-.406 0-.756-.148-1.05-.444C.147 38.704 0 38.352 0 37.944V2.056C0 1.648.148 1.296.443 1c.295-.296.645-.444 1.05-.444h8.74c.738 0 1.273.166 1.605.5.332.333.553.592.663.777l9.35 15.39V2.055c0-.408.147-.76.442-1.056.295-.296.646-.444 1.05-.444h10.014z"/>
  </g>
</svg>
